<?xml version="1.0" encoding="utf-8"?>
<svg version="1.1" baseProfile="full"  width="595" height="842" viewBox="0 0 595 842" xmlns="http://www.w3.org/2000/svg" xmlns:xlink="http://www.w3.org/1999/xlink" xmlns:ev="http://www.w3.org/2001/xml-events">
<rect width="595" height="842" fill="#fff" cx="0" cy="0" />
<defs>
<rect id="p" width="11" height="11" />
</defs><g fill="#ffffff"><use x="138" y="262" xlink:href="#p" />
<use x="138" y="273" xlink:href="#p" />
<use x="138" y="284" xlink:href="#p" />
<use x="138" y="295" xlink:href="#p" />
<use x="138" y="306" xlink:href="#p" />
<use x="138" y="317" xlink:href="#p" />
<use x="138" y="328" xlink:href="#p" />
<use x="138" y="339" xlink:href="#p" />
<use x="138" y="350" xlink:href="#p" />
<use x="138" y="361" xlink:href="#p" />
<use x="138" y="372" xlink:href="#p" />
<use x="138" y="383" xlink:href="#p" />
<use x="138" y="394" xlink:href="#p" />
<use x="138" y="405" xlink:href="#p" />
<use x="138" y="416" xlink:href="#p" />
<use x="138" y="427" xlink:href="#p" />
<use x="138" y="438" xlink:href="#p" />
<use x="138" y="449" xlink:href="#p" />
<use x="138" y="460" xlink:href="#p" />
<use x="138" y="471" xlink:href="#p" />
<use x="138" y="482" xlink:href="#p" />
<use x="138" y="493" xlink:href="#p" />
<use x="138" y="504" xlink:href="#p" />
<use x="138" y="515" xlink:href="#p" />
<use x="138" y="526" xlink:href="#p" />
<use x="138" y="537" xlink:href="#p" />
<use x="138" y="548" xlink:href="#p" />
<use x="138" y="559" xlink:href="#p" />
<use x="138" y="570" xlink:href="#p" />
<use x="149" y="262" xlink:href="#p" />
<use x="149" y="273" xlink:href="#p" />
<use x="149" y="284" xlink:href="#p" />
<use x="149" y="295" xlink:href="#p" />
<use x="149" y="306" xlink:href="#p" />
<use x="149" y="317" xlink:href="#p" />
<use x="149" y="328" xlink:href="#p" />
<use x="149" y="339" xlink:href="#p" />
<use x="149" y="350" xlink:href="#p" />
<use x="149" y="361" xlink:href="#p" />
<use x="149" y="372" xlink:href="#p" />
<use x="149" y="383" xlink:href="#p" />
<use x="149" y="394" xlink:href="#p" />
<use x="149" y="405" xlink:href="#p" />
<use x="149" y="416" xlink:href="#p" />
<use x="149" y="427" xlink:href="#p" />
<use x="149" y="438" xlink:href="#p" />
<use x="149" y="449" xlink:href="#p" />
<use x="149" y="460" xlink:href="#p" />
<use x="149" y="471" xlink:href="#p" />
<use x="149" y="482" xlink:href="#p" />
<use x="149" y="493" xlink:href="#p" />
<use x="149" y="504" xlink:href="#p" />
<use x="149" y="515" xlink:href="#p" />
<use x="149" y="526" xlink:href="#p" />
<use x="149" y="537" xlink:href="#p" />
<use x="149" y="548" xlink:href="#p" />
<use x="149" y="559" xlink:href="#p" />
<use x="149" y="570" xlink:href="#p" />
<use x="160" y="262" xlink:href="#p" />
<use x="160" y="273" xlink:href="#p" />
<use x="160" y="361" xlink:href="#p" />
<use x="160" y="394" xlink:href="#p" />
<use x="160" y="471" xlink:href="#p" />
<use x="160" y="559" xlink:href="#p" />
<use x="160" y="570" xlink:href="#p" />
<use x="171" y="262" xlink:href="#p" />
<use x="171" y="273" xlink:href="#p" />
<use x="171" y="295" xlink:href="#p" />
<use x="171" y="306" xlink:href="#p" />
<use x="171" y="317" xlink:href="#p" />
<use x="171" y="328" xlink:href="#p" />
<use x="171" y="339" xlink:href="#p" />
<use x="171" y="361" xlink:href="#p" />
<use x="171" y="405" xlink:href="#p" />
<use x="171" y="438" xlink:href="#p" />
<use x="171" y="449" xlink:href="#p" />
<use x="171" y="460" xlink:href="#p" />
<use x="171" y="471" xlink:href="#p" />
<use x="171" y="493" xlink:href="#p" />
<use x="171" y="504" xlink:href="#p" />
<use x="171" y="515" xlink:href="#p" />
<use x="171" y="526" xlink:href="#p" />
<use x="171" y="537" xlink:href="#p" />
<use x="171" y="559" xlink:href="#p" />
<use x="171" y="570" xlink:href="#p" />
<use x="182" y="262" xlink:href="#p" />
<use x="182" y="273" xlink:href="#p" />
<use x="182" y="295" xlink:href="#p" />
<use x="182" y="339" xlink:href="#p" />
<use x="182" y="361" xlink:href="#p" />
<use x="182" y="383" xlink:href="#p" />
<use x="182" y="405" xlink:href="#p" />
<use x="182" y="427" xlink:href="#p" />
<use x="182" y="438" xlink:href="#p" />
<use x="182" y="471" xlink:href="#p" />
<use x="182" y="493" xlink:href="#p" />
<use x="182" y="537" xlink:href="#p" />
<use x="182" y="559" xlink:href="#p" />
<use x="182" y="570" xlink:href="#p" />
<use x="193" y="262" xlink:href="#p" />
<use x="193" y="273" xlink:href="#p" />
<use x="193" y="295" xlink:href="#p" />
<use x="193" y="339" xlink:href="#p" />
<use x="193" y="361" xlink:href="#p" />
<use x="193" y="383" xlink:href="#p" />
<use x="193" y="394" xlink:href="#p" />
<use x="193" y="405" xlink:href="#p" />
<use x="193" y="438" xlink:href="#p" />
<use x="193" y="449" xlink:href="#p" />
<use x="193" y="471" xlink:href="#p" />
<use x="193" y="493" xlink:href="#p" />
<use x="193" y="537" xlink:href="#p" />
<use x="193" y="559" xlink:href="#p" />
<use x="193" y="570" xlink:href="#p" />
<use x="204" y="262" xlink:href="#p" />
<use x="204" y="273" xlink:href="#p" />
<use x="204" y="295" xlink:href="#p" />
<use x="204" y="339" xlink:href="#p" />
<use x="204" y="361" xlink:href="#p" />
<use x="204" y="383" xlink:href="#p" />
<use x="204" y="416" xlink:href="#p" />
<use x="204" y="449" xlink:href="#p" />
<use x="204" y="471" xlink:href="#p" />
<use x="204" y="493" xlink:href="#p" />
<use x="204" y="537" xlink:href="#p" />
<use x="204" y="559" xlink:href="#p" />
<use x="204" y="570" xlink:href="#p" />
<use x="215" y="262" xlink:href="#p" />
<use x="215" y="273" xlink:href="#p" />
<use x="215" y="295" xlink:href="#p" />
<use x="215" y="306" xlink:href="#p" />
<use x="215" y="317" xlink:href="#p" />
<use x="215" y="328" xlink:href="#p" />
<use x="215" y="339" xlink:href="#p" />
<use x="215" y="361" xlink:href="#p" />
<use x="215" y="372" xlink:href="#p" />
<use x="215" y="383" xlink:href="#p" />
<use x="215" y="405" xlink:href="#p" />
<use x="215" y="449" xlink:href="#p" />
<use x="215" y="460" xlink:href="#p" />
<use x="215" y="471" xlink:href="#p" />
<use x="215" y="493" xlink:href="#p" />
<use x="215" y="504" xlink:href="#p" />
<use x="215" y="515" xlink:href="#p" />
<use x="215" y="526" xlink:href="#p" />
<use x="215" y="537" xlink:href="#p" />
<use x="215" y="559" xlink:href="#p" />
<use x="215" y="570" xlink:href="#p" />
<use x="226" y="262" xlink:href="#p" />
<use x="226" y="273" xlink:href="#p" />
<use x="226" y="361" xlink:href="#p" />
<use x="226" y="383" xlink:href="#p" />
<use x="226" y="405" xlink:href="#p" />
<use x="226" y="427" xlink:href="#p" />
<use x="226" y="449" xlink:href="#p" />
<use x="226" y="471" xlink:href="#p" />
<use x="226" y="559" xlink:href="#p" />
<use x="226" y="570" xlink:href="#p" />
<use x="237" y="262" xlink:href="#p" />
<use x="237" y="273" xlink:href="#p" />
<use x="237" y="284" xlink:href="#p" />
<use x="237" y="295" xlink:href="#p" />
<use x="237" y="306" xlink:href="#p" />
<use x="237" y="317" xlink:href="#p" />
<use x="237" y="328" xlink:href="#p" />
<use x="237" y="339" xlink:href="#p" />
<use x="237" y="350" xlink:href="#p" />
<use x="237" y="361" xlink:href="#p" />
<use x="237" y="383" xlink:href="#p" />
<use x="237" y="405" xlink:href="#p" />
<use x="237" y="416" xlink:href="#p" />
<use x="237" y="471" xlink:href="#p" />
<use x="237" y="482" xlink:href="#p" />
<use x="237" y="493" xlink:href="#p" />
<use x="237" y="504" xlink:href="#p" />
<use x="237" y="515" xlink:href="#p" />
<use x="237" y="526" xlink:href="#p" />
<use x="237" y="537" xlink:href="#p" />
<use x="237" y="548" xlink:href="#p" />
<use x="237" y="559" xlink:href="#p" />
<use x="237" y="570" xlink:href="#p" />
<use x="248" y="262" xlink:href="#p" />
<use x="248" y="273" xlink:href="#p" />
<use x="248" y="284" xlink:href="#p" />
<use x="248" y="306" xlink:href="#p" />
<use x="248" y="328" xlink:href="#p" />
<use x="248" y="361" xlink:href="#p" />
<use x="248" y="383" xlink:href="#p" />
<use x="248" y="416" xlink:href="#p" />
<use x="248" y="427" xlink:href="#p" />
<use x="248" y="438" xlink:href="#p" />
<use x="248" y="493" xlink:href="#p" />
<use x="248" y="559" xlink:href="#p" />
<use x="248" y="570" xlink:href="#p" />
<use x="259" y="262" xlink:href="#p" />
<use x="259" y="273" xlink:href="#p" />
<use x="259" y="328" xlink:href="#p" />
<use x="259" y="339" xlink:href="#p" />
<use x="259" y="350" xlink:href="#p" />
<use x="259" y="361" xlink:href="#p" />
<use x="259" y="427" xlink:href="#p" />
<use x="259" y="438" xlink:href="#p" />
<use x="259" y="449" xlink:href="#p" />
<use x="259" y="460" xlink:href="#p" />
<use x="259" y="482" xlink:href="#p" />
<use x="259" y="493" xlink:href="#p" />
<use x="259" y="548" xlink:href="#p" />
<use x="259" y="559" xlink:href="#p" />
<use x="259" y="570" xlink:href="#p" />
<use x="270" y="262" xlink:href="#p" />
<use x="270" y="273" xlink:href="#p" />
<use x="270" y="284" xlink:href="#p" />
<use x="270" y="295" xlink:href="#p" />
<use x="270" y="317" xlink:href="#p" />
<use x="270" y="361" xlink:href="#p" />
<use x="270" y="383" xlink:href="#p" />
<use x="270" y="394" xlink:href="#p" />
<use x="270" y="416" xlink:href="#p" />
<use x="270" y="449" xlink:href="#p" />
<use x="270" y="460" xlink:href="#p" />
<use x="270" y="482" xlink:href="#p" />
<use x="270" y="515" xlink:href="#p" />
<use x="270" y="526" xlink:href="#p" />
<use x="270" y="559" xlink:href="#p" />
<use x="270" y="570" xlink:href="#p" />
<use x="281" y="262" xlink:href="#p" />
<use x="281" y="273" xlink:href="#p" />
<use x="281" y="284" xlink:href="#p" />
<use x="281" y="328" xlink:href="#p" />
<use x="281" y="339" xlink:href="#p" />
<use x="281" y="350" xlink:href="#p" />
<use x="281" y="394" xlink:href="#p" />
<use x="281" y="416" xlink:href="#p" />
<use x="281" y="438" xlink:href="#p" />
<use x="281" y="460" xlink:href="#p" />
<use x="281" y="482" xlink:href="#p" />
<use x="281" y="526" xlink:href="#p" />
<use x="281" y="559" xlink:href="#p" />
<use x="281" y="570" xlink:href="#p" />
<use x="292" y="262" xlink:href="#p" />
<use x="292" y="273" xlink:href="#p" />
<use x="292" y="284" xlink:href="#p" />
<use x="292" y="306" xlink:href="#p" />
<use x="292" y="339" xlink:href="#p" />
<use x="292" y="361" xlink:href="#p" />
<use x="292" y="394" xlink:href="#p" />
<use x="292" y="405" xlink:href="#p" />
<use x="292" y="427" xlink:href="#p" />
<use x="292" y="460" xlink:href="#p" />
<use x="292" y="471" xlink:href="#p" />
<use x="292" y="482" xlink:href="#p" />
<use x="292" y="493" xlink:href="#p" />
<use x="292" y="515" xlink:href="#p" />
<use x="292" y="537" xlink:href="#p" />
<use x="292" y="559" xlink:href="#p" />
<use x="292" y="570" xlink:href="#p" />
<use x="303" y="262" xlink:href="#p" />
<use x="303" y="273" xlink:href="#p" />
<use x="303" y="306" xlink:href="#p" />
<use x="303" y="328" xlink:href="#p" />
<use x="303" y="339" xlink:href="#p" />
<use x="303" y="350" xlink:href="#p" />
<use x="303" y="361" xlink:href="#p" />
<use x="303" y="383" xlink:href="#p" />
<use x="303" y="394" xlink:href="#p" />
<use x="303" y="405" xlink:href="#p" />
<use x="303" y="449" xlink:href="#p" />
<use x="303" y="471" xlink:href="#p" />
<use x="303" y="482" xlink:href="#p" />
<use x="303" y="493" xlink:href="#p" />
<use x="303" y="515" xlink:href="#p" />
<use x="303" y="526" xlink:href="#p" />
<use x="303" y="537" xlink:href="#p" />
<use x="303" y="559" xlink:href="#p" />
<use x="303" y="570" xlink:href="#p" />
<use x="314" y="262" xlink:href="#p" />
<use x="314" y="273" xlink:href="#p" />
<use x="314" y="284" xlink:href="#p" />
<use x="314" y="405" xlink:href="#p" />
<use x="314" y="416" xlink:href="#p" />
<use x="314" y="427" xlink:href="#p" />
<use x="314" y="449" xlink:href="#p" />
<use x="314" y="471" xlink:href="#p" />
<use x="314" y="548" xlink:href="#p" />
<use x="314" y="559" xlink:href="#p" />
<use x="314" y="570" xlink:href="#p" />
<use x="325" y="262" xlink:href="#p" />
<use x="325" y="273" xlink:href="#p" />
<use x="325" y="284" xlink:href="#p" />
<use x="325" y="306" xlink:href="#p" />
<use x="325" y="328" xlink:href="#p" />
<use x="325" y="350" xlink:href="#p" />
<use x="325" y="361" xlink:href="#p" />
<use x="325" y="372" xlink:href="#p" />
<use x="325" y="383" xlink:href="#p" />
<use x="325" y="427" xlink:href="#p" />
<use x="325" y="449" xlink:href="#p" />
<use x="325" y="471" xlink:href="#p" />
<use x="325" y="482" xlink:href="#p" />
<use x="325" y="493" xlink:href="#p" />
<use x="325" y="515" xlink:href="#p" />
<use x="325" y="526" xlink:href="#p" />
<use x="325" y="548" xlink:href="#p" />
<use x="325" y="559" xlink:href="#p" />
<use x="325" y="570" xlink:href="#p" />
<use x="336" y="262" xlink:href="#p" />
<use x="336" y="273" xlink:href="#p" />
<use x="336" y="306" xlink:href="#p" />
<use x="336" y="339" xlink:href="#p" />
<use x="336" y="372" xlink:href="#p" />
<use x="336" y="383" xlink:href="#p" />
<use x="336" y="394" xlink:href="#p" />
<use x="336" y="449" xlink:href="#p" />
<use x="336" y="515" xlink:href="#p" />
<use x="336" y="526" xlink:href="#p" />
<use x="336" y="548" xlink:href="#p" />
<use x="336" y="559" xlink:href="#p" />
<use x="336" y="570" xlink:href="#p" />
<use x="347" y="262" xlink:href="#p" />
<use x="347" y="273" xlink:href="#p" />
<use x="347" y="284" xlink:href="#p" />
<use x="347" y="295" xlink:href="#p" />
<use x="347" y="306" xlink:href="#p" />
<use x="347" y="317" xlink:href="#p" />
<use x="347" y="328" xlink:href="#p" />
<use x="347" y="339" xlink:href="#p" />
<use x="347" y="350" xlink:href="#p" />
<use x="347" y="361" xlink:href="#p" />
<use x="347" y="383" xlink:href="#p" />
<use x="347" y="394" xlink:href="#p" />
<use x="347" y="471" xlink:href="#p" />
<use x="347" y="482" xlink:href="#p" />
<use x="347" y="493" xlink:href="#p" />
<use x="347" y="548" xlink:href="#p" />
<use x="347" y="559" xlink:href="#p" />
<use x="347" y="570" xlink:href="#p" />
<use x="358" y="262" xlink:href="#p" />
<use x="358" y="273" xlink:href="#p" />
<use x="358" y="361" xlink:href="#p" />
<use x="358" y="372" xlink:href="#p" />
<use x="358" y="383" xlink:href="#p" />
<use x="358" y="427" xlink:href="#p" />
<use x="358" y="449" xlink:href="#p" />
<use x="358" y="471" xlink:href="#p" />
<use x="358" y="493" xlink:href="#p" />
<use x="358" y="526" xlink:href="#p" />
<use x="358" y="559" xlink:href="#p" />
<use x="358" y="570" xlink:href="#p" />
<use x="369" y="262" xlink:href="#p" />
<use x="369" y="273" xlink:href="#p" />
<use x="369" y="295" xlink:href="#p" />
<use x="369" y="306" xlink:href="#p" />
<use x="369" y="317" xlink:href="#p" />
<use x="369" y="328" xlink:href="#p" />
<use x="369" y="339" xlink:href="#p" />
<use x="369" y="361" xlink:href="#p" />
<use x="369" y="394" xlink:href="#p" />
<use x="369" y="416" xlink:href="#p" />
<use x="369" y="471" xlink:href="#p" />
<use x="369" y="482" xlink:href="#p" />
<use x="369" y="493" xlink:href="#p" />
<use x="369" y="515" xlink:href="#p" />
<use x="369" y="526" xlink:href="#p" />
<use x="369" y="559" xlink:href="#p" />
<use x="369" y="570" xlink:href="#p" />
<use x="380" y="262" xlink:href="#p" />
<use x="380" y="273" xlink:href="#p" />
<use x="380" y="295" xlink:href="#p" />
<use x="380" y="339" xlink:href="#p" />
<use x="380" y="361" xlink:href="#p" />
<use x="380" y="372" xlink:href="#p" />
<use x="380" y="383" xlink:href="#p" />
<use x="380" y="394" xlink:href="#p" />
<use x="380" y="405" xlink:href="#p" />
<use x="380" y="427" xlink:href="#p" />
<use x="380" y="526" xlink:href="#p" />
<use x="380" y="559" xlink:href="#p" />
<use x="380" y="570" xlink:href="#p" />
<use x="391" y="262" xlink:href="#p" />
<use x="391" y="273" xlink:href="#p" />
<use x="391" y="295" xlink:href="#p" />
<use x="391" y="339" xlink:href="#p" />
<use x="391" y="361" xlink:href="#p" />
<use x="391" y="383" xlink:href="#p" />
<use x="391" y="405" xlink:href="#p" />
<use x="391" y="416" xlink:href="#p" />
<use x="391" y="449" xlink:href="#p" />
<use x="391" y="460" xlink:href="#p" />
<use x="391" y="482" xlink:href="#p" />
<use x="391" y="504" xlink:href="#p" />
<use x="391" y="559" xlink:href="#p" />
<use x="391" y="570" xlink:href="#p" />
<use x="402" y="262" xlink:href="#p" />
<use x="402" y="273" xlink:href="#p" />
<use x="402" y="295" xlink:href="#p" />
<use x="402" y="339" xlink:href="#p" />
<use x="402" y="361" xlink:href="#p" />
<use x="402" y="372" xlink:href="#p" />
<use x="402" y="383" xlink:href="#p" />
<use x="402" y="394" xlink:href="#p" />
<use x="402" y="405" xlink:href="#p" />
<use x="402" y="427" xlink:href="#p" />
<use x="402" y="438" xlink:href="#p" />
<use x="402" y="449" xlink:href="#p" />
<use x="402" y="471" xlink:href="#p" />
<use x="402" y="493" xlink:href="#p" />
<use x="402" y="537" xlink:href="#p" />
<use x="402" y="559" xlink:href="#p" />
<use x="402" y="570" xlink:href="#p" />
<use x="413" y="262" xlink:href="#p" />
<use x="413" y="273" xlink:href="#p" />
<use x="413" y="295" xlink:href="#p" />
<use x="413" y="306" xlink:href="#p" />
<use x="413" y="317" xlink:href="#p" />
<use x="413" y="328" xlink:href="#p" />
<use x="413" y="339" xlink:href="#p" />
<use x="413" y="361" xlink:href="#p" />
<use x="413" y="405" xlink:href="#p" />
<use x="413" y="449" xlink:href="#p" />
<use x="413" y="460" xlink:href="#p" />
<use x="413" y="471" xlink:href="#p" />
<use x="413" y="493" xlink:href="#p" />
<use x="413" y="526" xlink:href="#p" />
<use x="413" y="537" xlink:href="#p" />
<use x="413" y="559" xlink:href="#p" />
<use x="413" y="570" xlink:href="#p" />
<use x="424" y="262" xlink:href="#p" />
<use x="424" y="273" xlink:href="#p" />
<use x="424" y="361" xlink:href="#p" />
<use x="424" y="372" xlink:href="#p" />
<use x="424" y="383" xlink:href="#p" />
<use x="424" y="427" xlink:href="#p" />
<use x="424" y="460" xlink:href="#p" />
<use x="424" y="471" xlink:href="#p" />
<use x="424" y="504" xlink:href="#p" />
<use x="424" y="559" xlink:href="#p" />
<use x="424" y="570" xlink:href="#p" />
<use x="435" y="262" xlink:href="#p" />
<use x="435" y="273" xlink:href="#p" />
<use x="435" y="284" xlink:href="#p" />
<use x="435" y="295" xlink:href="#p" />
<use x="435" y="306" xlink:href="#p" />
<use x="435" y="317" xlink:href="#p" />
<use x="435" y="328" xlink:href="#p" />
<use x="435" y="339" xlink:href="#p" />
<use x="435" y="350" xlink:href="#p" />
<use x="435" y="361" xlink:href="#p" />
<use x="435" y="372" xlink:href="#p" />
<use x="435" y="383" xlink:href="#p" />
<use x="435" y="394" xlink:href="#p" />
<use x="435" y="405" xlink:href="#p" />
<use x="435" y="416" xlink:href="#p" />
<use x="435" y="427" xlink:href="#p" />
<use x="435" y="438" xlink:href="#p" />
<use x="435" y="449" xlink:href="#p" />
<use x="435" y="460" xlink:href="#p" />
<use x="435" y="471" xlink:href="#p" />
<use x="435" y="482" xlink:href="#p" />
<use x="435" y="493" xlink:href="#p" />
<use x="435" y="504" xlink:href="#p" />
<use x="435" y="515" xlink:href="#p" />
<use x="435" y="526" xlink:href="#p" />
<use x="435" y="537" xlink:href="#p" />
<use x="435" y="548" xlink:href="#p" />
<use x="435" y="559" xlink:href="#p" />
<use x="435" y="570" xlink:href="#p" />
<use x="446" y="262" xlink:href="#p" />
<use x="446" y="273" xlink:href="#p" />
<use x="446" y="284" xlink:href="#p" />
<use x="446" y="295" xlink:href="#p" />
<use x="446" y="306" xlink:href="#p" />
<use x="446" y="317" xlink:href="#p" />
<use x="446" y="328" xlink:href="#p" />
<use x="446" y="339" xlink:href="#p" />
<use x="446" y="350" xlink:href="#p" />
<use x="446" y="361" xlink:href="#p" />
<use x="446" y="372" xlink:href="#p" />
<use x="446" y="383" xlink:href="#p" />
<use x="446" y="394" xlink:href="#p" />
<use x="446" y="405" xlink:href="#p" />
<use x="446" y="416" xlink:href="#p" />
<use x="446" y="427" xlink:href="#p" />
<use x="446" y="438" xlink:href="#p" />
<use x="446" y="449" xlink:href="#p" />
<use x="446" y="460" xlink:href="#p" />
<use x="446" y="471" xlink:href="#p" />
<use x="446" y="482" xlink:href="#p" />
<use x="446" y="493" xlink:href="#p" />
<use x="446" y="504" xlink:href="#p" />
<use x="446" y="515" xlink:href="#p" />
<use x="446" y="526" xlink:href="#p" />
<use x="446" y="537" xlink:href="#p" />
<use x="446" y="548" xlink:href="#p" />
<use x="446" y="559" xlink:href="#p" />
<use x="446" y="570" xlink:href="#p" />
</g><g fill="#000000"><use x="160" y="284" xlink:href="#p" />
<use x="160" y="295" xlink:href="#p" />
<use x="160" y="306" xlink:href="#p" />
<use x="160" y="317" xlink:href="#p" />
<use x="160" y="328" xlink:href="#p" />
<use x="160" y="339" xlink:href="#p" />
<use x="160" y="350" xlink:href="#p" />
<use x="160" y="372" xlink:href="#p" />
<use x="160" y="383" xlink:href="#p" />
<use x="160" y="405" xlink:href="#p" />
<use x="160" y="416" xlink:href="#p" />
<use x="160" y="427" xlink:href="#p" />
<use x="160" y="438" xlink:href="#p" />
<use x="160" y="449" xlink:href="#p" />
<use x="160" y="460" xlink:href="#p" />
<use x="160" y="482" xlink:href="#p" />
<use x="160" y="493" xlink:href="#p" />
<use x="160" y="504" xlink:href="#p" />
<use x="160" y="515" xlink:href="#p" />
<use x="160" y="526" xlink:href="#p" />
<use x="160" y="537" xlink:href="#p" />
<use x="160" y="548" xlink:href="#p" />
<use x="171" y="284" xlink:href="#p" />
<use x="171" y="350" xlink:href="#p" />
<use x="171" y="372" xlink:href="#p" />
<use x="171" y="383" xlink:href="#p" />
<use x="171" y="394" xlink:href="#p" />
<use x="171" y="416" xlink:href="#p" />
<use x="171" y="427" xlink:href="#p" />
<use x="171" y="482" xlink:href="#p" />
<use x="171" y="548" xlink:href="#p" />
<use x="182" y="284" xlink:href="#p" />
<use x="182" y="306" xlink:href="#p" />
<use x="182" y="317" xlink:href="#p" />
<use x="182" y="328" xlink:href="#p" />
<use x="182" y="350" xlink:href="#p" />
<use x="182" y="372" xlink:href="#p" />
<use x="182" y="394" xlink:href="#p" />
<use x="182" y="416" xlink:href="#p" />
<use x="182" y="449" xlink:href="#p" />
<use x="182" y="460" xlink:href="#p" />
<use x="182" y="482" xlink:href="#p" />
<use x="182" y="504" xlink:href="#p" />
<use x="182" y="515" xlink:href="#p" />
<use x="182" y="526" xlink:href="#p" />
<use x="182" y="548" xlink:href="#p" />
<use x="193" y="284" xlink:href="#p" />
<use x="193" y="306" xlink:href="#p" />
<use x="193" y="317" xlink:href="#p" />
<use x="193" y="328" xlink:href="#p" />
<use x="193" y="350" xlink:href="#p" />
<use x="193" y="372" xlink:href="#p" />
<use x="193" y="416" xlink:href="#p" />
<use x="193" y="427" xlink:href="#p" />
<use x="193" y="460" xlink:href="#p" />
<use x="193" y="482" xlink:href="#p" />
<use x="193" y="504" xlink:href="#p" />
<use x="193" y="515" xlink:href="#p" />
<use x="193" y="526" xlink:href="#p" />
<use x="193" y="548" xlink:href="#p" />
<use x="204" y="284" xlink:href="#p" />
<use x="204" y="306" xlink:href="#p" />
<use x="204" y="317" xlink:href="#p" />
<use x="204" y="328" xlink:href="#p" />
<use x="204" y="350" xlink:href="#p" />
<use x="204" y="372" xlink:href="#p" />
<use x="204" y="394" xlink:href="#p" />
<use x="204" y="405" xlink:href="#p" />
<use x="204" y="427" xlink:href="#p" />
<use x="204" y="438" xlink:href="#p" />
<use x="204" y="460" xlink:href="#p" />
<use x="204" y="482" xlink:href="#p" />
<use x="204" y="504" xlink:href="#p" />
<use x="204" y="515" xlink:href="#p" />
<use x="204" y="526" xlink:href="#p" />
<use x="204" y="548" xlink:href="#p" />
<use x="215" y="284" xlink:href="#p" />
<use x="215" y="350" xlink:href="#p" />
<use x="215" y="394" xlink:href="#p" />
<use x="215" y="416" xlink:href="#p" />
<use x="215" y="427" xlink:href="#p" />
<use x="215" y="438" xlink:href="#p" />
<use x="215" y="482" xlink:href="#p" />
<use x="215" y="548" xlink:href="#p" />
<use x="226" y="284" xlink:href="#p" />
<use x="226" y="295" xlink:href="#p" />
<use x="226" y="306" xlink:href="#p" />
<use x="226" y="317" xlink:href="#p" />
<use x="226" y="328" xlink:href="#p" />
<use x="226" y="339" xlink:href="#p" />
<use x="226" y="350" xlink:href="#p" />
<use x="226" y="372" xlink:href="#p" />
<use x="226" y="394" xlink:href="#p" />
<use x="226" y="416" xlink:href="#p" />
<use x="226" y="438" xlink:href="#p" />
<use x="226" y="460" xlink:href="#p" />
<use x="226" y="482" xlink:href="#p" />
<use x="226" y="493" xlink:href="#p" />
<use x="226" y="504" xlink:href="#p" />
<use x="226" y="515" xlink:href="#p" />
<use x="226" y="526" xlink:href="#p" />
<use x="226" y="537" xlink:href="#p" />
<use x="226" y="548" xlink:href="#p" />
<use x="237" y="372" xlink:href="#p" />
<use x="237" y="394" xlink:href="#p" />
<use x="237" y="427" xlink:href="#p" />
<use x="237" y="438" xlink:href="#p" />
<use x="237" y="449" xlink:href="#p" />
<use x="237" y="460" xlink:href="#p" />
<use x="248" y="295" xlink:href="#p" />
<use x="248" y="317" xlink:href="#p" />
<use x="248" y="339" xlink:href="#p" />
<use x="248" y="350" xlink:href="#p" />
<use x="248" y="372" xlink:href="#p" />
<use x="248" y="394" xlink:href="#p" />
<use x="248" y="405" xlink:href="#p" />
<use x="248" y="449" xlink:href="#p" />
<use x="248" y="460" xlink:href="#p" />
<use x="248" y="471" xlink:href="#p" />
<use x="248" y="482" xlink:href="#p" />
<use x="248" y="504" xlink:href="#p" />
<use x="248" y="515" xlink:href="#p" />
<use x="248" y="526" xlink:href="#p" />
<use x="248" y="537" xlink:href="#p" />
<use x="248" y="548" xlink:href="#p" />
<use x="259" y="284" xlink:href="#p" />
<use x="259" y="295" xlink:href="#p" />
<use x="259" y="306" xlink:href="#p" />
<use x="259" y="317" xlink:href="#p" />
<use x="259" y="372" xlink:href="#p" />
<use x="259" y="383" xlink:href="#p" />
<use x="259" y="394" xlink:href="#p" />
<use x="259" y="405" xlink:href="#p" />
<use x="259" y="416" xlink:href="#p" />
<use x="259" y="471" xlink:href="#p" />
<use x="259" y="504" xlink:href="#p" />
<use x="259" y="515" xlink:href="#p" />
<use x="259" y="526" xlink:href="#p" />
<use x="259" y="537" xlink:href="#p" />
<use x="270" y="306" xlink:href="#p" />
<use x="270" y="328" xlink:href="#p" />
<use x="270" y="339" xlink:href="#p" />
<use x="270" y="350" xlink:href="#p" />
<use x="270" y="372" xlink:href="#p" />
<use x="270" y="405" xlink:href="#p" />
<use x="270" y="427" xlink:href="#p" />
<use x="270" y="438" xlink:href="#p" />
<use x="270" y="471" xlink:href="#p" />
<use x="270" y="493" xlink:href="#p" />
<use x="270" y="504" xlink:href="#p" />
<use x="270" y="537" xlink:href="#p" />
<use x="270" y="548" xlink:href="#p" />
<use x="281" y="295" xlink:href="#p" />
<use x="281" y="306" xlink:href="#p" />
<use x="281" y="317" xlink:href="#p" />
<use x="281" y="361" xlink:href="#p" />
<use x="281" y="372" xlink:href="#p" />
<use x="281" y="383" xlink:href="#p" />
<use x="281" y="405" xlink:href="#p" />
<use x="281" y="427" xlink:href="#p" />
<use x="281" y="449" xlink:href="#p" />
<use x="281" y="471" xlink:href="#p" />
<use x="281" y="493" xlink:href="#p" />
<use x="281" y="504" xlink:href="#p" />
<use x="281" y="515" xlink:href="#p" />
<use x="281" y="537" xlink:href="#p" />
<use x="281" y="548" xlink:href="#p" />
<use x="292" y="295" xlink:href="#p" />
<use x="292" y="317" xlink:href="#p" />
<use x="292" y="328" xlink:href="#p" />
<use x="292" y="350" xlink:href="#p" />
<use x="292" y="372" xlink:href="#p" />
<use x="292" y="383" xlink:href="#p" />
<use x="292" y="416" xlink:href="#p" />
<use x="292" y="438" xlink:href="#p" />
<use x="292" y="449" xlink:href="#p" />
<use x="292" y="504" xlink:href="#p" />
<use x="292" y="526" xlink:href="#p" />
<use x="292" y="548" xlink:href="#p" />
<use x="303" y="284" xlink:href="#p" />
<use x="303" y="295" xlink:href="#p" />
<use x="303" y="317" xlink:href="#p" />
<use x="303" y="372" xlink:href="#p" />
<use x="303" y="416" xlink:href="#p" />
<use x="303" y="427" xlink:href="#p" />
<use x="303" y="438" xlink:href="#p" />
<use x="303" y="460" xlink:href="#p" />
<use x="303" y="504" xlink:href="#p" />
<use x="303" y="548" xlink:href="#p" />
<use x="314" y="295" xlink:href="#p" />
<use x="314" y="306" xlink:href="#p" />
<use x="314" y="317" xlink:href="#p" />
<use x="314" y="328" xlink:href="#p" />
<use x="314" y="339" xlink:href="#p" />
<use x="314" y="350" xlink:href="#p" />
<use x="314" y="361" xlink:href="#p" />
<use x="314" y="372" xlink:href="#p" />
<use x="314" y="383" xlink:href="#p" />
<use x="314" y="394" xlink:href="#p" />
<use x="314" y="438" xlink:href="#p" />
<use x="314" y="460" xlink:href="#p" />
<use x="314" y="482" xlink:href="#p" />
<use x="314" y="493" xlink:href="#p" />
<use x="314" y="504" xlink:href="#p" />
<use x="314" y="515" xlink:href="#p" />
<use x="314" y="526" xlink:href="#p" />
<use x="314" y="537" xlink:href="#p" />
<use x="325" y="295" xlink:href="#p" />
<use x="325" y="317" xlink:href="#p" />
<use x="325" y="339" xlink:href="#p" />
<use x="325" y="394" xlink:href="#p" />
<use x="325" y="405" xlink:href="#p" />
<use x="325" y="416" xlink:href="#p" />
<use x="325" y="438" xlink:href="#p" />
<use x="325" y="460" xlink:href="#p" />
<use x="325" y="504" xlink:href="#p" />
<use x="325" y="537" xlink:href="#p" />
<use x="336" y="284" xlink:href="#p" />
<use x="336" y="295" xlink:href="#p" />
<use x="336" y="317" xlink:href="#p" />
<use x="336" y="328" xlink:href="#p" />
<use x="336" y="350" xlink:href="#p" />
<use x="336" y="361" xlink:href="#p" />
<use x="336" y="405" xlink:href="#p" />
<use x="336" y="416" xlink:href="#p" />
<use x="336" y="427" xlink:href="#p" />
<use x="336" y="438" xlink:href="#p" />
<use x="336" y="460" xlink:href="#p" />
<use x="336" y="471" xlink:href="#p" />
<use x="336" y="482" xlink:href="#p" />
<use x="336" y="493" xlink:href="#p" />
<use x="336" y="504" xlink:href="#p" />
<use x="336" y="537" xlink:href="#p" />
<use x="347" y="372" xlink:href="#p" />
<use x="347" y="405" xlink:href="#p" />
<use x="347" y="416" xlink:href="#p" />
<use x="347" y="427" xlink:href="#p" />
<use x="347" y="438" xlink:href="#p" />
<use x="347" y="449" xlink:href="#p" />
<use x="347" y="460" xlink:href="#p" />
<use x="347" y="504" xlink:href="#p" />
<use x="347" y="515" xlink:href="#p" />
<use x="347" y="526" xlink:href="#p" />
<use x="347" y="537" xlink:href="#p" />
<use x="358" y="284" xlink:href="#p" />
<use x="358" y="295" xlink:href="#p" />
<use x="358" y="306" xlink:href="#p" />
<use x="358" y="317" xlink:href="#p" />
<use x="358" y="328" xlink:href="#p" />
<use x="358" y="339" xlink:href="#p" />
<use x="358" y="350" xlink:href="#p" />
<use x="358" y="394" xlink:href="#p" />
<use x="358" y="405" xlink:href="#p" />
<use x="358" y="416" xlink:href="#p" />
<use x="358" y="438" xlink:href="#p" />
<use x="358" y="460" xlink:href="#p" />
<use x="358" y="482" xlink:href="#p" />
<use x="358" y="504" xlink:href="#p" />
<use x="358" y="515" xlink:href="#p" />
<use x="358" y="537" xlink:href="#p" />
<use x="358" y="548" xlink:href="#p" />
<use x="369" y="284" xlink:href="#p" />
<use x="369" y="350" xlink:href="#p" />
<use x="369" y="372" xlink:href="#p" />
<use x="369" y="383" xlink:href="#p" />
<use x="369" y="405" xlink:href="#p" />
<use x="369" y="427" xlink:href="#p" />
<use x="369" y="438" xlink:href="#p" />
<use x="369" y="449" xlink:href="#p" />
<use x="369" y="460" xlink:href="#p" />
<use x="369" y="504" xlink:href="#p" />
<use x="369" y="537" xlink:href="#p" />
<use x="369" y="548" xlink:href="#p" />
<use x="380" y="284" xlink:href="#p" />
<use x="380" y="306" xlink:href="#p" />
<use x="380" y="317" xlink:href="#p" />
<use x="380" y="328" xlink:href="#p" />
<use x="380" y="350" xlink:href="#p" />
<use x="380" y="416" xlink:href="#p" />
<use x="380" y="438" xlink:href="#p" />
<use x="380" y="449" xlink:href="#p" />
<use x="380" y="460" xlink:href="#p" />
<use x="380" y="471" xlink:href="#p" />
<use x="380" y="482" xlink:href="#p" />
<use x="380" y="493" xlink:href="#p" />
<use x="380" y="504" xlink:href="#p" />
<use x="380" y="515" xlink:href="#p" />
<use x="380" y="537" xlink:href="#p" />
<use x="380" y="548" xlink:href="#p" />
<use x="391" y="284" xlink:href="#p" />
<use x="391" y="306" xlink:href="#p" />
<use x="391" y="317" xlink:href="#p" />
<use x="391" y="328" xlink:href="#p" />
<use x="391" y="350" xlink:href="#p" />
<use x="391" y="372" xlink:href="#p" />
<use x="391" y="394" xlink:href="#p" />
<use x="391" y="427" xlink:href="#p" />
<use x="391" y="438" xlink:href="#p" />
<use x="391" y="471" xlink:href="#p" />
<use x="391" y="493" xlink:href="#p" />
<use x="391" y="515" xlink:href="#p" />
<use x="391" y="526" xlink:href="#p" />
<use x="391" y="537" xlink:href="#p" />
<use x="391" y="548" xlink:href="#p" />
<use x="402" y="284" xlink:href="#p" />
<use x="402" y="306" xlink:href="#p" />
<use x="402" y="317" xlink:href="#p" />
<use x="402" y="328" xlink:href="#p" />
<use x="402" y="350" xlink:href="#p" />
<use x="402" y="416" xlink:href="#p" />
<use x="402" y="460" xlink:href="#p" />
<use x="402" y="482" xlink:href="#p" />
<use x="402" y="504" xlink:href="#p" />
<use x="402" y="515" xlink:href="#p" />
<use x="402" y="526" xlink:href="#p" />
<use x="402" y="548" xlink:href="#p" />
<use x="413" y="284" xlink:href="#p" />
<use x="413" y="350" xlink:href="#p" />
<use x="413" y="372" xlink:href="#p" />
<use x="413" y="383" xlink:href="#p" />
<use x="413" y="394" xlink:href="#p" />
<use x="413" y="416" xlink:href="#p" />
<use x="413" y="427" xlink:href="#p" />
<use x="413" y="438" xlink:href="#p" />
<use x="413" y="482" xlink:href="#p" />
<use x="413" y="504" xlink:href="#p" />
<use x="413" y="515" xlink:href="#p" />
<use x="413" y="548" xlink:href="#p" />
<use x="424" y="284" xlink:href="#p" />
<use x="424" y="295" xlink:href="#p" />
<use x="424" y="306" xlink:href="#p" />
<use x="424" y="317" xlink:href="#p" />
<use x="424" y="328" xlink:href="#p" />
<use x="424" y="339" xlink:href="#p" />
<use x="424" y="350" xlink:href="#p" />
<use x="424" y="394" xlink:href="#p" />
<use x="424" y="405" xlink:href="#p" />
<use x="424" y="416" xlink:href="#p" />
<use x="424" y="438" xlink:href="#p" />
<use x="424" y="449" xlink:href="#p" />
<use x="424" y="482" xlink:href="#p" />
<use x="424" y="493" xlink:href="#p" />
<use x="424" y="515" xlink:href="#p" />
<use x="424" y="526" xlink:href="#p" />
<use x="424" y="537" xlink:href="#p" />
<use x="424" y="548" xlink:href="#p" />
</g></svg>